HIERARCHY
ROOT Hips
{
	OFFSET 0.00000 0.00000 0.00000
	CHANNELS 6 Xposition Yposition Zposition Zrotation Yrotation Xrotation 
	JOINT LHipJoint
	{
		OFFSET 0 0 0
		CHANNELS 3 Zrotation Yrotation Xrotation
		JOINT LeftHip
		{
			OFFSET 1.80322 -1.53100 0.99595
			CHANNELS 3 Zrotation Yrotation Xrotation
			JOINT LeftKnee
			{
				OFFSET 2.25177 -6.18669 0.00000
				CHANNELS 3 Zrotation Yrotation Xrotation
				JOINT LeftAnkle
				{
					OFFSET 2.26601 -6.22582 0.00000
					CHANNELS 3 Zrotation Yrotation Xrotation
					JOINT LeftToe
					{
						OFFSET 0.23701 -0.65119 2.15848
						CHANNELS 3 Zrotation Yrotation Xrotation
						End Site
						{
							OFFSET 0.00000 -0.00000 1.12949
						}
					}
				}
			}
		}
	}
	JOINT RHipJoint
	{
		OFFSET 0 0 0
		CHANNELS 3 Zrotation Yrotation Xrotation
		JOINT RightHip
		{
			OFFSET -1.93977 -1.53100 0.99595
			CHANNELS 3 Zrotation Yrotation Xrotation
			JOINT RightKnee
			{
				OFFSET -2.28036 -6.26523 0.00000
				CHANNELS 3 Zrotation Yrotation Xrotation
				JOINT RightAnkle
				{
					OFFSET -2.25490 -6.19528 0.00000
					CHANNELS 3 Zrotation Yrotation Xrotation
					JOINT RightToe
					{
						OFFSET -0.28375 -0.77960 2.23137
						CHANNELS 3 Zrotation Yrotation Xrotation
						End Site
						{
							OFFSET -0.00000 -0.00000 1.17899
						}
					}
				}
			}
		}
	}
	JOINT lowerback
	{
		OFFSET 0 0 0
		CHANNELS 3 Zrotation Yrotation Xrotation
		JOINT Chest
		{
			OFFSET -0.00088 2.12090 -0.02806
			CHANNELS 3 Zrotation Yrotation Xrotation
			JOINT Chest2
			{
				OFFSET -0.00286 2.09666 0.12974
				CHANNELS 3 Zrotation Yrotation Xrotation
				JOINT lowerneck
				{
					OFFSET 0 0 0
					CHANNELS 3 Zrotation Yrotation Xrotation
					JOINT Neck
					{
						OFFSET 0.07328 1.83526 0.07290
						CHANNELS 3 Zrotation Yrotation Xrotation
						JOINT Head
						{
							OFFSET -0.06683 1.74974 -0.49542
							CHANNELS 3 Zrotation Yrotation Xrotation
							End Site
							{
								OFFSET -0.03398 1.85163 -0.17573
							}
						}
					}
				}
				JOINT LeftCollar
				{
					OFFSET 0 0 0
					CHANNELS 3 Zrotation Yrotation Xrotation
					JOINT LeftShoulder
					{
						OFFSET 3.02113 1.18018 0.40602
CHANNELS 3 Zrotation Xrotation Yrotation
						JOINT LeftElbow
						{
OFFSET 0 -4.585380 -0.000000
CHANNELS 3 Zrotation Xrotation Yrotation
							JOINT LeftWrist
							{
OFFSET 0 -2.689350 -0.000000
CHANNELS 3 Zrotation Xrotation Yrotation
								JOINT lhand
								{
									OFFSET 0 0 0
CHANNELS 3 Zrotation Xrotation Yrotation
									JOINT LFingers
									{
OFFSET 0 -0.585060 -0.000000
CHANNELS 3 Zrotation Xrotation Yrotation
										End Site
										{
OFFSET 0 -0.471690 -0.000000
										}
									}
								}
								JOINT LThumb
								{
OFFSET 0 0.000000 0.000000
CHANNELS 3 Zrotation Xrotation Yrotation
									End Site
									{
OFFSET 0 -0.478890 0.478890
									}
								}
							}
						}
					}
				}
				JOINT RightCollar
				{
					OFFSET 0 0 0
					CHANNELS 3 Zrotation Yrotation Xrotation
					JOINT RightShoulder
					{
						OFFSET -2.95074 1.18843 0.31430
CHANNELS 3 Zrotation Xrotation Yrotation
						JOINT RightElbow
						{
OFFSET 0 -4.474500 -0.000000
CHANNELS 3 Zrotation Xrotation Yrotation
							JOINT RightWrist
							{
OFFSET 0 -2.938960 -0.000000
CHANNELS 3 Zrotation Xrotation Yrotation
								JOINT rhand
								{
									OFFSET 0 0 0
CHANNELS 3 Zrotation Xrotation Yrotation
									JOINT RFingers
									{
OFFSET 0 -0.405090 -0.000000
CHANNELS 3 Zrotation Xrotation Yrotation
										End Site
										{
OFFSET 0 -0.326600 -0.000000
										}
									}
								}
								JOINT RThumb
								{
OFFSET 0 0.000000 0.000000
CHANNELS 3 Zrotation Xrotation Yrotation
									End Site
									{
OFFSET 0 -0.331580 0.331580
									}
								}
							}
						}
					}
				}
			}
		}
	}
}
MOTION
Frames: 9
Frame Time: 0.008333333333333333
0.975500 15.746600 6.598800 -3.130000 -4.364900 9.268700 0.000000 0.000000 0.000000 -13.360000 -15.739800 -5.525000 1.378600 7.429800 20.995000 0.339300 15.252800 -24.828400 0.005300 -0.470400 -1.292500 0.000000 0.000000 0.000000 17.124300 15.894100 -4.167100 -0.869900 -5.946700 16.629800 0.633700 -18.968200 -20.778700 -0.026900 1.058900 -2.910900 3.614100 -0.880000 -6.596600 1.021100 -1.264600 -8.321000 -0.983900 -0.808700 -5.017000 9.029200 3.324700 -10.439400 -5.166600 4.467400 36.737400 -3.073700 2.475500 14.805200 -0.000000 0.000000 0.000000 2.126500 15.178100 -19.714700 16.910700 -26.739900 4.047100 6.044100 21.582600 -13.627500 0.000000 0.000000 0.000000 -7.125000 0.000000 0.000000 -19.210700 42.829500 -1.071800 -0.000000 0.000000 0.000000 -5.680400 10.921000 16.201800 -10.945600 -18.204700 -1.758900 -10.352000 21.431400 7.665200 0.000000 0.000000 0.000000 7.125000 0.000000 -0.000000 13.973800 37.430800 2.666300
0.959018 15.752127 6.591738 -3.176699 -4.302966 9.413967 0.000000 0.000000 0.000000 -13.190951 -15.931147 -5.613510 1.365752 7.396526 20.895577 0.318322 15.375295 -24.796826 0.004859 -0.450430 -1.237745 0.000000 0.000000 0.000000 17.198767 16.020686 -4.337705 -0.872469 -5.955299 16.654764 0.637093 -19.017617 -20.834434 -0.022466 0.967202 -2.658578 3.605815 -0.885289 -6.450084 1.028834 -1.265889 -8.255963 -0.969380 -0.807834 -5.028991 9.015407 3.270088 -10.499774 -5.135768 4.359073 36.419160 -3.065497 2.425154 14.654300 0.000000 0.000000 0.000000 1.904306 15.023492 -20.117573 17.157252 -27.064629 4.158634 6.137344 21.171297 -13.656623 0.000000 0.000000 0.000000 -7.125000 0.000000 0.000000 -19.139673 42.866644 -1.049197 0.000000 0.000000 0.000000 -6.107099 10.990855 15.295160 -11.010991 -18.305148 -1.779401 -10.429112 20.540596 8.167895 0.000000 0.000000 0.000000 7.125000 0.000000 0.000000 14.015825 37.931092 2.498296
0.945356 15.755420 6.583608 -3.233807 -4.328099 9.568969 0.000000 0.000000 0.000000 -13.026036 -16.071592 -5.741275 1.360111 7.382001 20.852021 0.301398 15.505308 -24.810264 0.005000 -0.454927 -1.250029 0.000000 0.000000 0.000000 17.262477 16.075593 -4.554928 -0.872669 -5.955924 16.656636 0.638569 -18.994599 -20.772463 -0.020800 0.931348 -2.559897 3.603408 -0.896050 -6.335327 1.019333 -1.277236 -8.176891 -0.977195 -0.812410 -5.009348 9.020687 3.226190 -10.501212 -5.024297 4.235900 36.067260 -3.028924 2.381042 14.473527 0.000000 0.000000 0.000000 1.739179 14.971493 -20.472188 17.339749 -27.303566 4.242020 6.103669 20.821101 -13.688208 0.000000 0.000000 0.000000 -7.125000 0.000000 0.000000 -19.179145 42.893125 -1.038420 0.000000 0.000000 0.000000 -6.310419 11.061203 15.887313 -11.321328 -18.779056 -1.878023 -10.593417 19.019699 8.429459 0.000000 0.000000 0.000000 7.125000 0.000000 0.000000 13.934750 38.200134 2.388798
0.936039 15.758027 6.574236 -3.249365 -4.396380 9.724525 0.000000 0.000000 0.000000 -12.930141 -16.209155 -5.880239 1.358006 7.376567 20.835851 0.283984 15.655155 -24.844627 0.004824 -0.448623 -1.232727 0.000000 0.000000 0.000000 17.253331 16.117664 -4.789180 -0.872366 -5.955047 16.654169 0.643404 -18.948508 -20.625968 -0.023361 0.987096 -2.713351 3.559752 -0.931106 -6.221235 1.005460 -1.319918 -8.120358 -0.966539 -0.831332 -5.013698 8.981591 3.179554 -10.502586 -4.915549 4.124020 35.815797 -2.987304 2.336109 14.341409 0.000000 0.000000 0.000000 1.570931 14.981933 -20.552945 17.348538 -27.314939 4.246051 6.048258 20.947002 -13.628909 0.000000 0.000000 0.000000 -7.125000 0.000000 0.000000 -19.207530 42.831254 -1.070700 0.000000 0.000000 0.000000 -6.216952 10.959342 16.972841 -11.613938 -19.223163 -1.973319 -10.604791 17.720265 8.511599 0.000000 0.000000 0.000000 7.125000 0.000000 0.000000 13.942925 38.281862 2.361520
0.929450 15.760106 6.565343 -3.294402 -4.489335 9.871133 0.000000 0.000000 0.000000 -12.804317 -16.253226 -6.069306 1.361972 7.386781 20.866410 0.277643 15.721298 -24.872468 0.004231 -0.420923 -1.156595 0.000000 0.000000 0.000000 17.275523 16.187553 -4.965487 -0.865787 -5.933090 16.590342 0.654272 -18.933092 -20.465098 -0.026953 1.060011 -2.914073 3.534173 -0.945332 -6.106604 0.996160 -1.335031 -8.068173 -0.960639 -0.837361 -5.022166 8.927014 3.130236 -10.513363 -4.852377 4.030257 35.596932 -2.960156 2.291461 14.229772 0.000000 0.000000 0.000000 1.442931 14.898526 -20.402484 17.185427 -27.101566 4.171460 5.959046 21.310101 -13.575830 0.000000 0.000000 0.000000 -7.125000 0.000000 0.000000 -19.266976 42.771908 -1.103705 0.000000 0.000000 0.000000 -5.837281 10.802248 18.443756 -11.986294 -19.784042 -2.097670 -10.478912 15.969008 8.626628 0.000000 0.000000 0.000000 7.125000 0.000000 0.000000 14.073498 38.386215 2.347715
0.928502 15.762579 6.557921 -3.317279 -4.602205 10.023442 0.000000 0.000000 0.000000 -12.729228 -16.271562 -6.251150 1.362835 7.388991 20.873066 0.271900 15.785023 -24.902200 0.003707 -0.394605 -1.084094 0.000000 0.000000 0.000000 17.235871 16.348876 -5.122755 -0.861407 -5.918421 16.548042 0.653430 -18.895248 -20.401181 -0.026509 1.051242 -2.889795 3.468103 -0.928092 -5.996459 0.995568 -1.306832 -8.028153 -0.922426 -0.819486 -5.037804 8.877759 3.083607 -10.514671 -4.893633 3.978024 35.307555 -2.968956 2.251763 14.090389 0.000000 0.000000 0.000000 1.322463 14.843902 -20.348433 17.087244 -26.972630 4.126872 6.106519 21.520111 -13.616002 0.000000 0.000000 0.000000 -7.125000 0.000000 0.000000 -19.152864 42.824962 -1.070489 0.000000 0.000000 0.000000 -5.328673 10.841638 20.694663 -12.749137 -20.918500 -2.363006 -9.936262 12.571276 9.479597 0.000000 0.000000 0.000000 7.125000 0.000000 0.000000 14.723696 39.183449 2.165209
0.937129 15.765255 6.555297 -3.305590 -4.659191 10.144339 0.000000 0.000000 0.000000 -12.748710 -16.286072 -6.370474 1.359552 7.380403 20.847410 0.266033 15.829574 -24.907057 0.003248 -0.369388 -1.015032 0.000000 0.000000 0.000000 17.135445 16.322351 -5.305720 -0.861242 -5.917820 16.546263 0.644058 -18.796506 -20.321214 -0.028797 1.095472 -3.011487 3.393213 -0.933550 -5.916095 0.989975 -1.310903 -7.950730 -0.886366 -0.816218 -4.998034 8.824044 3.058234 -10.535569 -4.983496 3.973475 34.969515 -2.988125 2.225263 13.939664 0.000000 0.000000 0.000000 1.220514 14.813004 -20.327584 17.186217 -27.102627 4.171835 6.173867 21.474344 -13.760141 0.000000 0.000000 0.000000 -7.125000 0.000000 0.000000 -19.142214 42.968532 -0.999115 0.000000 0.000000 0.000000 -4.764511 10.931511 23.529955 -13.697871 -22.301059 -2.712487 -9.744062 9.191056 10.253849 0.000000 0.000000 0.000000 7.125000 0.000000 0.000000 15.072917 39.925709 1.936097
0.950736 15.766431 6.555520 -3.305462 -4.756024 10.241225 0.000000 0.000000 0.000000 -12.782653 -16.227099 -6.505882 1.363292 7.390244 20.876813 0.270073 15.822626 -24.933079 0.002680 -0.332282 -0.913010 0.000000 0.000000 0.000000 17.039912 16.443814 -5.370304 -0.854717 -5.895989 16.483028 0.653814 -18.823983 -20.256360 -0.029831 1.114831 -3.064841 3.318118 -0.898840 -5.818486 0.966297 -1.260416 -7.913494 -0.867115 -0.787421 -5.009105 8.789455 3.017764 -10.525846 -5.047661 3.939133 34.760323 -3.008079 2.194354 13.839090 0.000000 0.000000 0.000000 1.247609 14.893342 -20.743442 17.471746 -27.475445 4.302764 6.471410 21.200004 -14.123905 0.000000 0.000000 0.000000 -7.125000 0.000000 0.000000 -19.005106 43.344473 -0.807631 0.000000 0.000000 0.000000 -4.235498 11.148124 26.466162 -14.642060 -23.645067 -3.080997 -9.525679 5.845209 10.439665 0.000000 0.000000 0.000000 7.125000 0.000000 0.000000 15.304775 40.088954 1.904192
0.972326 15.771057 6.559125 -3.283668 -4.810433 10.341905 0.000000 0.000000 0.000000 -12.859642 -16.136671 -6.657190 1.362631 7.388425 20.871375 0.272719 15.750011 -24.865711 0.002369 -0.316027 -0.868418 0.000000 0.000000 0.000000 16.898993 16.537402 -5.459347 -0.850662 -5.882287 16.443299 0.675070 -18.907372 -20.160675 -0.031625 1.147404 -3.154487 3.235734 -0.868273 -5.764392 0.938037 -1.217491 -7.871648 -0.849718 -0.761698 -4.991186 8.773222 2.983585 -10.539374 -5.114210 3.908173 34.531848 -3.030732 2.166698 13.736787 0.000000 0.000000 0.000000 1.326560 14.852528 -21.245938 17.782099 -27.877255 4.446909 6.617192 20.799206 -14.277750 0.000000 0.000000 0.000000 -7.125000 0.000000 0.000000 -18.929904 43.505918 -0.725691 0.000000 0.000000 0.000000 -3.820744 11.350401 29.208927 -15.628728 -25.014547 -3.487535 -9.006938 3.382515 10.743497 0.000000 0.000000 0.000000 7.125000 0.000000 0.000000 15.823486 40.341038 1.871251
